<svg xmlns="http://www.w3.org/2000/svg" width="1200" height="675" viewBox="0 0 1200 675" role="img" aria-labelledby="t d">
<title id="t">Universal Brain architecture</title>
<desc id="d">Deterministic control plane architecture connecting human request, alignment, executive kernel, model routing, durable mission state, engineering workers, authority-gated tools, verification and canonical event state.</desc>
<defs>
  <linearGradient id="bg" x1="0" y1="0" x2="1" y2="1"><stop stop-color="#F4F0E8"/><stop offset="1" stop-color="#E4EBEF"/></linearGradient>
  <pattern id="grid" width="34" height="34" patternUnits="userSpaceOnUse"><path d="M34 0H0V34" fill="none" stroke="#6F90A8" stroke-opacity=".09"/></pattern>
  <filter id="shadow"><feDropShadow dx="0" dy="6" stdDeviation="10" flood-color="#132436" flood-opacity=".10"/></filter>
</defs>
<rect width="1200" height="675" rx="30" fill="url(#bg)"/><rect width="1200" height="675" rx="30" fill="url(#grid)"/>
<g font-family="Inter,Segoe UI,Arial,sans-serif">
  <text x="62" y="72" font-size="18" font-weight="700" letter-spacing="3.4" fill="#607582">LOCAL FIRST · AUTHORITY GATED · DURABLE · VERIFIABLE</text>
  <text x="62" y="126" font-size="44" font-weight="800" fill="#132436">Universal Brain Control Plane</text>
  <text x="62" y="160" font-size="21" fill="#425866">Models reason. Deterministic components retain truth, permissions, state and recovery authority.</text>

  <g transform="translate(58 202)" filter="url(#shadow)">
    <rect width="1084" height="344" rx="24" fill="#FFFFFF" fill-opacity=".73" stroke="#B8C7CE"/>

    <g text-anchor="middle" fill="#203540">
      <g transform="translate(35 55)"><rect width="145" height="70" rx="16" fill="#EDF2F4" stroke="#91A6AF"/><text x="72.5" y="30" font-size="17" font-weight="700">Human Request</text><text x="72.5" y="52" font-size="12.5" fill="#607582">explicit intent</text></g>
      <g transform="translate(220 55)"><rect width="160" height="70" rx="16" fill="#E5ECEF" stroke="#819AA6"/><text x="80" y="30" font-size="17" font-weight="700">Alignment</text><text x="80" y="52" font-size="12.5" fill="#607582">requirements + constraints</text></g>
      <g transform="translate(430 44)"><rect width="190" height="92" rx="18" fill="#D9E6EC" stroke="#658596" stroke-width="2"/><text x="95" y="34" font-size="18" font-weight="800">Executive Kernel</text><text x="95" y="59" font-size="12.5" fill="#557180">deterministic control plane</text><text x="95" y="77" font-size="12.5" fill="#557180">canonical authority</text></g>

      <g transform="translate(690 20)"><rect width="155" height="70" rx="16" fill="#EAF0F2" stroke="#8DA2AC"/><text x="77.5" y="29" font-size="16" font-weight="700">Model Routing</text><text x="77.5" y="51" font-size="12.5" fill="#607582">council / fallback</text></g>
      <g transform="translate(690 112)"><rect width="155" height="70" rx="16" fill="#EAF0F2" stroke="#8DA2AC"/><text x="77.5" y="29" font-size="16" font-weight="700">Mission State</text><text x="77.5" y="51" font-size="12.5" fill="#607582">durable checkpoints</text></g>
      <g transform="translate(690 204)"><rect width="155" height="70" rx="16" fill="#EAF0F2" stroke="#8DA2AC"/><text x="77.5" y="29" font-size="16" font-weight="700">Workers</text><text x="77.5" y="51" font-size="12.5" fill="#607582">engineering execution</text></g>

      <g transform="translate(900 68)"><rect width="150" height="82" rx="17" fill="#F2E7D9" stroke="#B78555" stroke-width="2"/><text x="75" y="31" font-size="17" font-weight="800">Tool Gateway</text><text x="75" y="55" font-size="12.5" fill="#76583E">explicit authority</text></g>
      <g transform="translate(900 185)"><rect width="150" height="70" rx="16" fill="#E3ECE6" stroke="#789783"/><text x="75" y="30" font-size="16" font-weight="700">Verification</text><text x="75" y="52" font-size="12.5" fill="#5F7667">evidence + results</text></g>
      <g transform="translate(430 225)"><rect width="190" height="72" rx="16" fill="#E1E9EC" stroke="#8198A4"/><text x="95" y="30" font-size="16" font-weight="700">Canonical Event / State</text><text x="95" y="53" font-size="12.5" fill="#607582">audit + continuity</text></g>
    </g>

    <g fill="none" stroke="#718894" stroke-width="3" stroke-linecap="round" stroke-linejoin="round">
      <path d="M180 90H220"/><path d="M380 90H430"/>
      <path d="M620 90H660V55H690"/><path d="M620 90H660V147H690"/><path d="M620 90H660V239H690"/>
      <path d="M845 55H875V109H900"/><path d="M845 147H875V109H900"/><path d="M845 239H875V109H900"/>
      <path d="M975 150V185"/><path d="M900 220H850V261H620"/>
      <path d="M525 225V165H525V136"/>
    </g>
    <g fill="#718894">
      <path d="M217 85l10 5-10 5z"/><path d="M427 85l10 5-10 5z"/>
      <path d="M687 50l10 5-10 5z"/><path d="M687 142l10 5-10 5z"/><path d="M687 234l10 5-10 5z"/>
      <path d="M897 104l10 5-10 5z"/><path d="M970 181l5 10 5-10z"/><path d="M623 256l-10 5 10 5z"/><path d="M520 140l5-10 5 10z"/>
    </g>
  </g>

  <g transform="translate(62 575)">
    <rect width="1076" height="48" rx="14" fill="#263C48"/>
    <text x="24" y="31" font-size="15.5" font-weight="700" fill="#F4F0E8">IMPLEMENTED CHECKPOINTS THROUGH V5.3</text>
    <text x="382" y="31" font-size="14.5" fill="#C9D5DA">Target machine Windows / WSL2 / Ollama endurance evidence remains explicitly gated</text>
  </g>
</g>
</svg>